G04 #@! TF.GenerationSoftware,KiCad,Pcbnew,7.0.9*
G04 #@! TF.CreationDate,2023-11-12T22:26:40-08:00*
G04 #@! TF.ProjectId,TimeRecordingButton,54696d65-5265-4636-9f72-64696e674275,rev?*
G04 #@! TF.SameCoordinates,Original*
G04 #@! TF.FileFunction,Legend,Bot*
G04 #@! TF.FilePolarity,Positive*
%FSLAX46Y46*%
G04 Gerber Fmt 4.6, Leading zero omitted, Abs format (unit mm)*
G04 Created by KiCad (PCBNEW 7.0.9) date 2023-11-12 22:26:40*
%MOMM*%
%LPD*%
G01*
G04 APERTURE LIST*
%ADD10C,0.120000*%
%ADD11R,0.333300X4.300000*%
%ADD12R,5.000000X0.250000*%
%ADD13R,0.333300X4.300100*%
%ADD14R,1.000000X2.250000*%
%ADD15R,1.700000X1.700000*%
%ADD16O,1.700000X1.700000*%
G04 APERTURE END LIST*
D10*
X109214098Y-106109792D02*
X109099812Y-106147887D01*
X109099812Y-106147887D02*
X108909336Y-106147887D01*
X108909336Y-106147887D02*
X108833145Y-106109792D01*
X108833145Y-106109792D02*
X108795050Y-106071696D01*
X108795050Y-106071696D02*
X108756955Y-105995506D01*
X108756955Y-105995506D02*
X108756955Y-105919315D01*
X108756955Y-105919315D02*
X108795050Y-105843125D01*
X108795050Y-105843125D02*
X108833145Y-105805030D01*
X108833145Y-105805030D02*
X108909336Y-105766934D01*
X108909336Y-105766934D02*
X109061717Y-105728839D01*
X109061717Y-105728839D02*
X109137907Y-105690744D01*
X109137907Y-105690744D02*
X109176002Y-105652649D01*
X109176002Y-105652649D02*
X109214098Y-105576458D01*
X109214098Y-105576458D02*
X109214098Y-105500268D01*
X109214098Y-105500268D02*
X109176002Y-105424077D01*
X109176002Y-105424077D02*
X109137907Y-105385982D01*
X109137907Y-105385982D02*
X109061717Y-105347887D01*
X109061717Y-105347887D02*
X108871240Y-105347887D01*
X108871240Y-105347887D02*
X108756955Y-105385982D01*
X108490288Y-105347887D02*
X108299812Y-106147887D01*
X108299812Y-106147887D02*
X108147431Y-105576458D01*
X108147431Y-105576458D02*
X107995050Y-106147887D01*
X107995050Y-106147887D02*
X107804574Y-105347887D01*
X107080764Y-106147887D02*
X107537907Y-106147887D01*
X107309335Y-106147887D02*
X107309335Y-105347887D01*
X107309335Y-105347887D02*
X107385526Y-105462172D01*
X107385526Y-105462172D02*
X107461716Y-105538363D01*
X107461716Y-105538363D02*
X107537907Y-105576458D01*
X101464396Y-103604064D02*
X101464396Y-104175492D01*
X101464396Y-104175492D02*
X101502491Y-104289778D01*
X101502491Y-104289778D02*
X101578682Y-104365969D01*
X101578682Y-104365969D02*
X101692967Y-104404064D01*
X101692967Y-104404064D02*
X101769158Y-104404064D01*
X101121539Y-103680254D02*
X101083443Y-103642159D01*
X101083443Y-103642159D02*
X101007253Y-103604064D01*
X101007253Y-103604064D02*
X100816777Y-103604064D01*
X100816777Y-103604064D02*
X100740586Y-103642159D01*
X100740586Y-103642159D02*
X100702491Y-103680254D01*
X100702491Y-103680254D02*
X100664396Y-103756445D01*
X100664396Y-103756445D02*
X100664396Y-103832635D01*
X100664396Y-103832635D02*
X100702491Y-103946921D01*
X100702491Y-103946921D02*
X101159634Y-104404064D01*
X101159634Y-104404064D02*
X100664396Y-104404064D01*
X110726700Y-106560000D02*
X105586700Y-106560000D01*
X110726700Y-111680000D02*
X110726700Y-106560000D01*
X105586700Y-106560000D02*
X105586700Y-111680000D01*
X105586700Y-111680000D02*
X110726700Y-111680000D01*
X100350284Y-103455284D02*
X100350284Y-104705284D01*
X100350284Y-104705284D02*
X101600284Y-104705284D01*
%LPC*%
D11*
X109823400Y-108995000D03*
X108490000Y-108995000D03*
D12*
X108156700Y-106745000D03*
D11*
X107156700Y-108995000D03*
X105823400Y-108995000D03*
X110490000Y-109220000D03*
D13*
X109156700Y-109220000D03*
D12*
X108156700Y-111495000D03*
D13*
X107823400Y-109220000D03*
X106490000Y-109220000D03*
D14*
X103150284Y-103205284D03*
X105650284Y-103205284D03*
D15*
X112812304Y-104694022D03*
D16*
X112812304Y-107234022D03*
X112812304Y-109774022D03*
X112812304Y-112314022D03*
X112812304Y-114854022D03*
%LPD*%
M02*
