%TF.GenerationSoftware,KiCad,Pcbnew,7.0.9*%
%TF.CreationDate,2023-11-12T22:26:37-08:00*%
%TF.ProjectId,TimeRecordingButton,54696d65-5265-4636-9f72-64696e674275,rev?*%
%TF.SameCoordinates,Original*%
%TF.FileFunction,Drillmap*%
%TF.FilePolarity,Positive*%
%FSLAX45Y45*%
G04 Gerber Fmt 4.5, Leading zero omitted, Abs format (unit mm)*
G04 Created by KiCad (PCBNEW 7.0.9) date 2023-11-12 22:26:37*
%MOMM*%
%LPD*%
G01*
G04 APERTURE LIST*
%ADD10C,0.100000*%
%ADD11C,0.200000*%
G04 APERTURE END LIST*
D10*
X9966812Y-10201863D02*
X11466812Y-10201863D01*
X11466812Y-11701863D01*
X9966812Y-11701863D01*
X9966812Y-10201863D01*
D11*
X10222589Y-12018346D02*
X10222589Y-11818346D01*
X10222589Y-11818346D02*
X10270208Y-11818346D01*
X10270208Y-11818346D02*
X10298779Y-11827870D01*
X10298779Y-11827870D02*
X10317827Y-11846918D01*
X10317827Y-11846918D02*
X10327351Y-11865965D01*
X10327351Y-11865965D02*
X10336875Y-11904061D01*
X10336875Y-11904061D02*
X10336875Y-11932632D01*
X10336875Y-11932632D02*
X10327351Y-11970727D01*
X10327351Y-11970727D02*
X10317827Y-11989775D01*
X10317827Y-11989775D02*
X10298779Y-12008823D01*
X10298779Y-12008823D02*
X10270208Y-12018346D01*
X10270208Y-12018346D02*
X10222589Y-12018346D01*
X10422589Y-12018346D02*
X10422589Y-11885013D01*
X10422589Y-11923108D02*
X10432113Y-11904061D01*
X10432113Y-11904061D02*
X10441637Y-11894537D01*
X10441637Y-11894537D02*
X10460684Y-11885013D01*
X10460684Y-11885013D02*
X10479732Y-11885013D01*
X10546398Y-12018346D02*
X10546398Y-11885013D01*
X10546398Y-11818346D02*
X10536875Y-11827870D01*
X10536875Y-11827870D02*
X10546398Y-11837394D01*
X10546398Y-11837394D02*
X10555922Y-11827870D01*
X10555922Y-11827870D02*
X10546398Y-11818346D01*
X10546398Y-11818346D02*
X10546398Y-11837394D01*
X10670208Y-12018346D02*
X10651160Y-12008823D01*
X10651160Y-12008823D02*
X10641637Y-11989775D01*
X10641637Y-11989775D02*
X10641637Y-11818346D01*
X10774970Y-12018346D02*
X10755922Y-12008823D01*
X10755922Y-12008823D02*
X10746398Y-11989775D01*
X10746398Y-11989775D02*
X10746398Y-11818346D01*
X11003541Y-12018346D02*
X11003541Y-11818346D01*
X11003541Y-11818346D02*
X11070208Y-11961203D01*
X11070208Y-11961203D02*
X11136875Y-11818346D01*
X11136875Y-11818346D02*
X11136875Y-12018346D01*
X11317827Y-12018346D02*
X11317827Y-11913584D01*
X11317827Y-11913584D02*
X11308303Y-11894537D01*
X11308303Y-11894537D02*
X11289256Y-11885013D01*
X11289256Y-11885013D02*
X11251160Y-11885013D01*
X11251160Y-11885013D02*
X11232113Y-11894537D01*
X11317827Y-12008823D02*
X11298779Y-12018346D01*
X11298779Y-12018346D02*
X11251160Y-12018346D01*
X11251160Y-12018346D02*
X11232113Y-12008823D01*
X11232113Y-12008823D02*
X11222589Y-11989775D01*
X11222589Y-11989775D02*
X11222589Y-11970727D01*
X11222589Y-11970727D02*
X11232113Y-11951680D01*
X11232113Y-11951680D02*
X11251160Y-11942156D01*
X11251160Y-11942156D02*
X11298779Y-11942156D01*
X11298779Y-11942156D02*
X11317827Y-11932632D01*
X11413065Y-11885013D02*
X11413065Y-12085013D01*
X11413065Y-11894537D02*
X11432113Y-11885013D01*
X11432113Y-11885013D02*
X11470208Y-11885013D01*
X11470208Y-11885013D02*
X11489256Y-11894537D01*
X11489256Y-11894537D02*
X11498779Y-11904061D01*
X11498779Y-11904061D02*
X11508303Y-11923108D01*
X11508303Y-11923108D02*
X11508303Y-11980251D01*
X11508303Y-11980251D02*
X11498779Y-11999299D01*
X11498779Y-11999299D02*
X11489256Y-12008823D01*
X11489256Y-12008823D02*
X11470208Y-12018346D01*
X11470208Y-12018346D02*
X11432113Y-12018346D01*
X11432113Y-12018346D02*
X11413065Y-12008823D01*
X11594017Y-11999299D02*
X11603541Y-12008823D01*
X11603541Y-12008823D02*
X11594017Y-12018346D01*
X11594017Y-12018346D02*
X11584494Y-12008823D01*
X11584494Y-12008823D02*
X11594017Y-11999299D01*
X11594017Y-11999299D02*
X11594017Y-12018346D01*
X11594017Y-11894537D02*
X11603541Y-11904061D01*
X11603541Y-11904061D02*
X11594017Y-11913584D01*
X11594017Y-11913584D02*
X11584494Y-11904061D01*
X11584494Y-11904061D02*
X11594017Y-11894537D01*
X11594017Y-11894537D02*
X11594017Y-11913584D01*
M02*
