G04 #@! TF.GenerationSoftware,KiCad,Pcbnew,7.0.9*
G04 #@! TF.CreationDate,2023-11-12T22:26:40-08:00*
G04 #@! TF.ProjectId,TimeRecordingButton,54696d65-5265-4636-9f72-64696e674275,rev?*
G04 #@! TF.SameCoordinates,Original*
G04 #@! TF.FileFunction,Copper,L2,Bot*
G04 #@! TF.FilePolarity,Positive*
%FSLAX46Y46*%
G04 Gerber Fmt 4.6, Leading zero omitted, Abs format (unit mm)*
G04 Created by KiCad (PCBNEW 7.0.9) date 2023-11-12 22:26:40*
%MOMM*%
%LPD*%
G01*
G04 APERTURE LIST*
G04 #@! TA.AperFunction,SMDPad,CuDef*
%ADD10R,0.333300X4.300000*%
G04 #@! TD*
G04 #@! TA.AperFunction,SMDPad,CuDef*
%ADD11R,5.000000X0.250000*%
G04 #@! TD*
G04 #@! TA.AperFunction,SMDPad,CuDef*
%ADD12R,0.333300X4.300100*%
G04 #@! TD*
G04 #@! TA.AperFunction,SMDPad,CuDef*
%ADD13R,1.000000X2.250000*%
G04 #@! TD*
G04 #@! TA.AperFunction,ComponentPad*
%ADD14R,1.700000X1.700000*%
G04 #@! TD*
G04 #@! TA.AperFunction,ComponentPad*
%ADD15O,1.700000X1.700000*%
G04 #@! TD*
G04 #@! TA.AperFunction,ViaPad*
%ADD16C,0.800000*%
G04 #@! TD*
G04 #@! TA.AperFunction,Conductor*
%ADD17C,0.250000*%
G04 #@! TD*
G04 APERTURE END LIST*
D10*
X109823400Y-108995000D03*
X108490000Y-108995000D03*
D11*
X108156700Y-106745000D03*
D10*
X107156700Y-108995000D03*
X105823400Y-108995000D03*
X110490000Y-109220000D03*
D12*
X109156700Y-109220000D03*
D11*
X108156700Y-111495000D03*
D12*
X107823400Y-109220000D03*
X106490000Y-109220000D03*
D13*
X103150284Y-103205284D03*
X105650284Y-103205284D03*
D14*
X112812304Y-104694022D03*
D15*
X112812304Y-107234022D03*
X112812304Y-109774022D03*
X112812304Y-112314022D03*
X112812304Y-114854022D03*
D16*
X109735485Y-111962963D03*
X103144204Y-106086036D03*
X104869204Y-106086036D03*
X106980422Y-112563636D03*
X103498616Y-115304522D03*
X101677426Y-111293636D03*
X101677426Y-112563636D03*
D17*
X109267522Y-111495000D02*
X109735485Y-111962963D01*
X101878790Y-111495000D02*
X108156700Y-111495000D01*
X101677426Y-111293636D02*
X101878790Y-111495000D01*
X103144204Y-106086036D02*
X105823400Y-108765232D01*
X103150284Y-103205284D02*
X103150284Y-106079956D01*
X103150284Y-106079956D02*
X103144204Y-106086036D01*
X108285284Y-103205284D02*
X111637304Y-106557304D01*
X104869204Y-106086036D02*
X105697678Y-105257562D01*
X105697678Y-105257562D02*
X105697678Y-103252678D01*
X105650284Y-103205284D02*
X108285284Y-103205284D01*
X111637304Y-108599022D02*
X112812304Y-109774022D01*
X111637304Y-106557304D02*
X111637304Y-108599022D01*
X104405478Y-115304522D02*
X103498616Y-115304522D01*
X106980422Y-112729578D02*
X104405478Y-115304522D01*
X106980422Y-112563636D02*
X106980422Y-112729578D01*
X101677426Y-115647426D02*
X101677426Y-112563636D01*
X113987304Y-105869022D02*
X113987304Y-115882696D01*
X113840978Y-116029022D02*
X102059022Y-116029022D01*
X113987304Y-115882696D02*
X113840978Y-116029022D01*
X102059022Y-116029022D02*
X101677426Y-115647426D01*
X112812304Y-104694022D02*
X113987304Y-105869022D01*
M02*
