G04 #@! TF.GenerationSoftware,KiCad,Pcbnew,7.0.9*
G04 #@! TF.CreationDate,2023-11-12T22:26:40-08:00*
G04 #@! TF.ProjectId,TimeRecordingButton,54696d65-5265-4636-9f72-64696e674275,rev?*
G04 #@! TF.SameCoordinates,Original*
G04 #@! TF.FileFunction,Copper,L1,Top*
G04 #@! TF.FilePolarity,Positive*
%FSLAX46Y46*%
G04 Gerber Fmt 4.6, Leading zero omitted, Abs format (unit mm)*
G04 Created by KiCad (PCBNEW 7.0.9) date 2023-11-12 22:26:40*
%MOMM*%
%LPD*%
G01*
G04 APERTURE LIST*
G04 Aperture macros list*
%AMRoundRect*
0 Rectangle with rounded corners*
0 $1 Rounding radius*
0 $2 $3 $4 $5 $6 $7 $8 $9 X,Y pos of 4 corners*
0 Add a 4 corners polygon primitive as box body*
4,1,4,$2,$3,$4,$5,$6,$7,$8,$9,$2,$3,0*
0 Add four circle primitives for the rounded corners*
1,1,$1+$1,$2,$3*
1,1,$1+$1,$4,$5*
1,1,$1+$1,$6,$7*
1,1,$1+$1,$8,$9*
0 Add four rect primitives between the rounded corners*
20,1,$1+$1,$2,$3,$4,$5,0*
20,1,$1+$1,$4,$5,$6,$7,0*
20,1,$1+$1,$6,$7,$8,$9,0*
20,1,$1+$1,$8,$9,$2,$3,0*%
G04 Aperture macros list end*
G04 #@! TA.AperFunction,SMDPad,CuDef*
%ADD10R,1.391399X0.558000*%
G04 #@! TD*
G04 #@! TA.AperFunction,SMDPad,CuDef*
%ADD11RoundRect,0.250001X0.624999X-0.462499X0.624999X0.462499X-0.624999X0.462499X-0.624999X-0.462499X0*%
G04 #@! TD*
G04 #@! TA.AperFunction,SMDPad,CuDef*
%ADD12RoundRect,0.250000X-0.625000X0.400000X-0.625000X-0.400000X0.625000X-0.400000X0.625000X0.400000X0*%
G04 #@! TD*
G04 #@! TA.AperFunction,SMDPad,CuDef*
%ADD13RoundRect,0.250000X0.625000X-0.400000X0.625000X0.400000X-0.625000X0.400000X-0.625000X-0.400000X0*%
G04 #@! TD*
G04 #@! TA.AperFunction,ComponentPad*
%ADD14R,1.700000X1.700000*%
G04 #@! TD*
G04 #@! TA.AperFunction,ComponentPad*
%ADD15O,1.700000X1.700000*%
G04 #@! TD*
G04 #@! TA.AperFunction,SMDPad,CuDef*
%ADD16R,0.666700X2.250000*%
G04 #@! TD*
G04 #@! TA.AperFunction,SMDPad,CuDef*
%ADD17RoundRect,0.237500X-0.300000X-0.237500X0.300000X-0.237500X0.300000X0.237500X-0.300000X0.237500X0*%
G04 #@! TD*
G04 #@! TA.AperFunction,ViaPad*
%ADD18C,0.800000*%
G04 #@! TD*
G04 #@! TA.AperFunction,Conductor*
%ADD19C,0.250000*%
G04 #@! TD*
G04 APERTURE END LIST*
D10*
X101677426Y-108753636D03*
X101677426Y-110023636D03*
X101677426Y-111293636D03*
X101677426Y-112563636D03*
X106980422Y-112563636D03*
X106980422Y-111293636D03*
X106980422Y-110023636D03*
X106980422Y-108753636D03*
D11*
X109713619Y-106787016D03*
X109713619Y-103812016D03*
D12*
X109735485Y-108862963D03*
X109735485Y-111962963D03*
D13*
X107286540Y-106846419D03*
X107286540Y-103746419D03*
D14*
X112812304Y-104694022D03*
D15*
X112812304Y-107234022D03*
X112812304Y-109774022D03*
X112812304Y-112314022D03*
X112812304Y-114854022D03*
D16*
X102165216Y-115764993D03*
X103498616Y-115764993D03*
X104831916Y-115764993D03*
X106165216Y-115764993D03*
X107498616Y-115764993D03*
D17*
X103144204Y-106086036D03*
X104869204Y-106086036D03*
D18*
X109735485Y-111962963D03*
X103144204Y-106086036D03*
X104869204Y-106086036D03*
X106980422Y-112563636D03*
X103498616Y-115304522D03*
X101677426Y-111293636D03*
X101677426Y-112563636D03*
D19*
X106073142Y-106214717D02*
X106877859Y-105410000D01*
X103144204Y-107286858D02*
X106073142Y-107286858D01*
X106073142Y-107286858D02*
X106073142Y-106214717D01*
X102165216Y-115764993D02*
X100330000Y-113929777D01*
X106877859Y-105410000D02*
X110988282Y-105410000D01*
X103144204Y-106086036D02*
X103144204Y-107286858D01*
X103144204Y-107286858D02*
X101677426Y-108753636D01*
X100330000Y-109009381D02*
X100589448Y-108749933D01*
X100330000Y-113929777D02*
X100330000Y-109009381D01*
X110988282Y-105410000D02*
X112812304Y-107234022D01*
X100589448Y-108749933D02*
X100593151Y-108753636D01*
X100593151Y-108753636D02*
X101677426Y-108753636D01*
X109735485Y-108862963D02*
X107089749Y-108862963D01*
X105410000Y-109907359D02*
X105410000Y-112884727D01*
X105410000Y-112884727D02*
X107498616Y-114973343D01*
X106563723Y-108753636D02*
X105410000Y-109907359D01*
X109713619Y-106787016D02*
X109713619Y-108841097D01*
X112812304Y-109774022D02*
X109825298Y-106787016D01*
X109713619Y-103812016D02*
X107352137Y-103812016D01*
X102032125Y-111293636D02*
X104831916Y-114093427D01*
X104831916Y-114093427D02*
X104831916Y-115764993D01*
X101677426Y-110023636D02*
X104109323Y-110023636D01*
X104109323Y-110023636D02*
X107286540Y-106846419D01*
X106980422Y-110023636D02*
X110521918Y-110023636D01*
X110521918Y-110023636D02*
X112812304Y-112314022D01*
X107397121Y-111293636D02*
X108131700Y-110559057D01*
X110176679Y-110559057D02*
X111637304Y-112019682D01*
X108131700Y-110559057D02*
X110176679Y-110559057D01*
X111637304Y-113679022D02*
X112812304Y-114854022D01*
X111637304Y-112019682D02*
X111637304Y-113679022D01*
M02*
