<?xml version="1.0" standalone="no"?>
 <!DOCTYPE svg PUBLIC "-//W3C//DTD SVG 1.1//EN" 
 "http://www.w3.org/Graphics/SVG/1.1/DTD/svg11.dtd"> 
<svg
  xmlns:svg="http://www.w3.org/2000/svg"
  xmlns="http://www.w3.org/2000/svg"
  xmlns:xlink="http://www.w3.org/1999/xlink"
  version="1.1"
  width="15.0876mm" height="19.4056mm" viewBox="0.0000 0.0000 15.0876 19.4056">
<title>SVG Image created as TimeRecordingButton-F_Cu.svg date 2023/11/12 21:18:52 </title>
  <desc>Image generated by PCBNEW </desc>
<g style="fill:#000000; fill-opacity:1.0000;stroke:#000000; stroke-opacity:1.0000;
stroke-linecap:round; stroke-linejoin:round;"
 transform="translate(0 0) scale(1 1)">
</g>
<g style="fill:#000000; fill-opacity:0.0; 
stroke:#000000; stroke-width:0.0000; stroke-opacity:1; 
stroke-linecap:round; stroke-linejoin:round;">
<g >
</g>
<g >
</g>
<g >
</g>
<g style="fill:#000000; fill-opacity:0.0; 
stroke:#000000; stroke-width:0.0000; stroke-opacity:1; 
stroke-linecap:round; stroke-linejoin:round;">
</g>
<g style="fill:#000000; fill-opacity:0.0; 
stroke:#000000; stroke-width:0.0000; stroke-opacity:1; 
stroke-linecap:round; stroke-linejoin:round;">
</g>
<g style="fill:#000000; fill-opacity:1.0000; 
stroke:#000000; stroke-width:0.0000; stroke-opacity:1; 
stroke-linecap:round; stroke-linejoin:round;">
<path style="fill:#000000; fill-opacity:1.0000; 
stroke:#000000; stroke-width:0.0000; stroke-opacity:1; 
stroke-linecap:round; stroke-linejoin:round;fill-rule:evenodd;"
d="M 9.4705,7.1692
9.3748,7.1502
9.2937,7.0960
9.2395,7.0149
9.2205,6.9192
9.2205,5.9942
9.2395,5.8986
9.2937,5.8175
9.3748,5.7633
9.4705,5.7442
10.7205,5.7442
10.8162,5.7633
10.8973,5.8175
10.9515,5.8986
10.9705,5.9942
10.9705,6.9192
10.9515,7.0149
10.8973,7.0960
10.8162,7.1502
10.7205,7.1692
Z" /> 
<path style="fill:#000000; fill-opacity:1.0000; 
stroke:#000000; stroke-width:0.0000; stroke-opacity:1; 
stroke-linecap:round; stroke-linejoin:round;fill-rule:evenodd;"
d="M 9.4705,4.1942
9.3748,4.1752
9.2937,4.1210
9.2395,4.0399
9.2205,3.9442
9.2205,3.0192
9.2395,2.9236
9.2937,2.8425
9.3748,2.7883
9.4705,2.7692
10.7205,2.7692
10.8162,2.7883
10.8973,2.8425
10.9515,2.9236
10.9705,3.0192
10.9705,3.9442
10.9515,4.0399
10.8973,4.1210
10.8162,4.1752
10.7205,4.1942
Z" /> 
</g>
<g >
</g>
<g style="fill:#000000; fill-opacity:1.0000; 
stroke:#000000; stroke-width:0.0000; stroke-opacity:1; 
stroke-linecap:round; stroke-linejoin:round;">
<path style="fill:#000000; fill-opacity:1.0000; 
stroke:#000000; stroke-width:0.0000; stroke-opacity:1; 
stroke-linecap:round; stroke-linejoin:round;fill-rule:evenodd;"
d="M 10.7424,7.8827
10.8380,7.9017
10.9191,7.9559
10.9733,8.0370
10.9924,8.1327
10.9924,8.9327
10.9733,9.0283
10.9191,9.1095
10.8380,9.1636
10.7424,9.1827
9.4924,9.1827
9.3967,9.1636
9.3156,9.1095
9.2614,9.0283
9.2424,8.9327
9.2424,8.1327
9.2614,8.0370
9.3156,7.9559
9.3967,7.9017
9.4924,7.8827
Z" /> 
<path style="fill:#000000; fill-opacity:1.0000; 
stroke:#000000; stroke-width:0.0000; stroke-opacity:1; 
stroke-linecap:round; stroke-linejoin:round;fill-rule:evenodd;"
d="M 10.7424,10.9827
10.8380,11.0017
10.9191,11.0559
10.9733,11.1370
10.9924,11.2327
10.9924,12.0327
10.9733,12.1283
10.9191,12.2095
10.8380,12.2636
10.7424,12.2827
9.4924,12.2827
9.3967,12.2636
9.3156,12.2095
9.2614,12.1283
9.2424,12.0327
9.2424,11.2327
9.2614,11.1370
9.3156,11.0559
9.3967,11.0017
9.4924,10.9827
Z" /> 
</g>
<g >
</g>
<g style="fill:#000000; fill-opacity:1.0000; 
stroke:#000000; stroke-width:0.0000; stroke-opacity:1; 
stroke-linecap:round; stroke-linejoin:round;">
<path style="fill:#000000; fill-opacity:1.0000; 
stroke:#000000; stroke-width:0.0000; stroke-opacity:1; 
stroke-linecap:round; stroke-linejoin:round;fill-rule:evenodd;"
d="M 1.3636,8.7024
1.3636,8.1444
2.7550,8.1444
2.7550,8.7024
Z" /> 
<path style="fill:#000000; fill-opacity:1.0000; 
stroke:#000000; stroke-width:0.0000; stroke-opacity:1; 
stroke-linecap:round; stroke-linejoin:round;fill-rule:evenodd;"
d="M 1.3636,9.9724
1.3636,9.4144
2.7550,9.4144
2.7550,9.9724
Z" /> 
<path style="fill:#000000; fill-opacity:1.0000; 
stroke:#000000; stroke-width:0.0000; stroke-opacity:1; 
stroke-linecap:round; stroke-linejoin:round;fill-rule:evenodd;"
d="M 1.3636,11.2424
1.3636,10.6844
2.7550,10.6844
2.7550,11.2424
Z" /> 
<path style="fill:#000000; fill-opacity:1.0000; 
stroke:#000000; stroke-width:0.0000; stroke-opacity:1; 
stroke-linecap:round; stroke-linejoin:round;fill-rule:evenodd;"
d="M 1.3636,12.5124
1.3636,11.9544
2.7550,11.9544
2.7550,12.5124
Z" /> 
<path style="fill:#000000; fill-opacity:1.0000; 
stroke:#000000; stroke-width:0.0000; stroke-opacity:1; 
stroke-linecap:round; stroke-linejoin:round;fill-rule:evenodd;"
d="M 6.6666,12.5124
6.6666,11.9544
8.0580,11.9544
8.0580,12.5124
Z" /> 
<path style="fill:#000000; fill-opacity:1.0000; 
stroke:#000000; stroke-width:0.0000; stroke-opacity:1; 
stroke-linecap:round; stroke-linejoin:round;fill-rule:evenodd;"
d="M 6.6666,11.2424
6.6666,10.6844
8.0580,10.6844
8.0580,11.2424
Z" /> 
<path style="fill:#000000; fill-opacity:1.0000; 
stroke:#000000; stroke-width:0.0000; stroke-opacity:1; 
stroke-linecap:round; stroke-linejoin:round;fill-rule:evenodd;"
d="M 6.6666,9.9724
6.6666,9.4144
8.0580,9.4144
8.0580,9.9724
Z" /> 
<path style="fill:#000000; fill-opacity:1.0000; 
stroke:#000000; stroke-width:0.0000; stroke-opacity:1; 
stroke-linecap:round; stroke-linejoin:round;fill-rule:evenodd;"
d="M 6.6666,8.7024
6.6666,8.1444
8.0580,8.1444
8.0580,8.7024
Z" /> 
</g>
<g >
</g>
<g style="fill:#000000; fill-opacity:1.0000; 
stroke:#000000; stroke-width:0.0000; stroke-opacity:1; 
stroke-linecap:round; stroke-linejoin:round;">
<path style="fill:#000000; fill-opacity:1.0000; 
stroke:#000000; stroke-width:0.0000; stroke-opacity:1; 
stroke-linecap:round; stroke-linejoin:round;fill-rule:evenodd;"
d="M 7.0434,7.1661
6.9477,7.1471
6.8666,7.0929
6.8124,7.0118
6.7934,6.9161
6.7934,6.1161
6.8124,6.0205
6.8666,5.9394
6.9477,5.8852
7.0434,5.8661
8.2934,5.8661
8.3891,5.8852
8.4702,5.9394
8.5244,6.0205
8.5434,6.1161
8.5434,6.9161
8.5244,7.0118
8.4702,7.0929
8.3891,7.1471
8.2934,7.1661
Z" /> 
<path style="fill:#000000; fill-opacity:1.0000; 
stroke:#000000; stroke-width:0.0000; stroke-opacity:1; 
stroke-linecap:round; stroke-linejoin:round;fill-rule:evenodd;"
d="M 7.0434,4.0661
6.9477,4.0471
6.8666,3.9929
6.8124,3.9118
6.7934,3.8161
6.7934,3.0161
6.8124,2.9205
6.8666,2.8394
6.9477,2.7852
7.0434,2.7661
8.2934,2.7661
8.3891,2.7852
8.4702,2.8394
8.5244,2.9205
8.5434,3.0161
8.5434,3.8161
8.5244,3.9118
8.4702,3.9929
8.3891,4.0471
8.2934,4.0661
Z" /> 
</g>
<g >
</g>
<g style="fill:#000000; fill-opacity:1.0000; 
stroke:#000000; stroke-width:0.0000; stroke-opacity:1; 
stroke-linecap:round; stroke-linejoin:round;">
<path style="fill:#000000; fill-opacity:1.0000; 
stroke:#000000; stroke-width:0.0000; stroke-opacity:1; 
stroke-linecap:round; stroke-linejoin:round;fill-rule:evenodd;"
d="M 12.3442,5.2137
12.3442,3.5137
14.0442,3.5137
14.0442,5.2137
Z" /> 
<circle cx="13.1942" cy="6.9037" r="0.8500" /> 
<circle cx="13.1942" cy="9.4437" r="0.8500" /> 
<circle cx="13.1942" cy="11.9837" r="0.8500" /> 
<circle cx="13.1942" cy="14.5237" r="0.8500" /> 
</g>
<g >
</g>
<g style="fill:#000000; fill-opacity:1.0000; 
stroke:#000000; stroke-width:0.0000; stroke-opacity:1; 
stroke-linecap:round; stroke-linejoin:round;">
<path style="fill:#000000; fill-opacity:1.0000; 
stroke:#000000; stroke-width:0.0000; stroke-opacity:1; 
stroke-linecap:round; stroke-linejoin:round;fill-rule:evenodd;"
d="M 2.2137,16.5597
2.2137,14.3097
2.8804,14.3097
2.8804,16.5597
Z" /> 
<path style="fill:#000000; fill-opacity:1.0000; 
stroke:#000000; stroke-width:0.0000; stroke-opacity:1; 
stroke-linecap:round; stroke-linejoin:round;fill-rule:evenodd;"
d="M 3.5471,16.5597
3.5471,14.3097
4.2138,14.3097
4.2138,16.5597
Z" /> 
<path style="fill:#000000; fill-opacity:1.0000; 
stroke:#000000; stroke-width:0.0000; stroke-opacity:1; 
stroke-linecap:round; stroke-linejoin:round;fill-rule:evenodd;"
d="M 4.8804,16.5597
4.8804,14.3097
5.5471,14.3097
5.5471,16.5597
Z" /> 
<path style="fill:#000000; fill-opacity:1.0000; 
stroke:#000000; stroke-width:0.0000; stroke-opacity:1; 
stroke-linecap:round; stroke-linejoin:round;fill-rule:evenodd;"
d="M 6.2137,16.5597
6.2137,14.3097
6.8804,14.3097
6.8804,16.5597
Z" /> 
<path style="fill:#000000; fill-opacity:1.0000; 
stroke:#000000; stroke-width:0.0000; stroke-opacity:1; 
stroke-linecap:round; stroke-linejoin:round;fill-rule:evenodd;"
d="M 7.5471,16.5597
7.5471,14.3097
8.2138,14.3097
8.2138,16.5597
Z" /> 
</g>
<g >
</g>
<g style="fill:#000000; fill-opacity:1.0000; 
stroke:#000000; stroke-width:0.0000; stroke-opacity:1; 
stroke-linecap:round; stroke-linejoin:round;">
<path style="fill:#000000; fill-opacity:1.0000; 
stroke:#000000; stroke-width:0.0000; stroke-opacity:1; 
stroke-linecap:round; stroke-linejoin:round;fill-rule:evenodd;"
d="M 2.9886,5.5183
3.0067,5.4274
3.0581,5.3503
3.1352,5.2988
3.2261,5.2808
3.8261,5.2808
3.9170,5.2988
3.9940,5.3503
4.0455,5.4274
4.0636,5.5183
4.0636,5.9933
4.0455,6.0841
3.9940,6.1612
3.9170,6.2127
3.8261,6.2308
3.2261,6.2308
3.1352,6.2127
3.0581,6.1612
3.0067,6.0841
2.9886,5.9933
Z" /> 
<path style="fill:#000000; fill-opacity:1.0000; 
stroke:#000000; stroke-width:0.0000; stroke-opacity:1; 
stroke-linecap:round; stroke-linejoin:round;fill-rule:evenodd;"
d="M 4.7136,5.5183
4.7317,5.4274
4.7831,5.3503
4.8602,5.2988
4.9511,5.2808
5.5511,5.2808
5.6420,5.2988
5.7190,5.3503
5.7705,5.4274
5.7886,5.5183
5.7886,5.9933
5.7705,6.0841
5.7190,6.1612
5.6420,6.2127
5.5511,6.2308
4.9511,6.2308
4.8602,6.2127
4.7831,6.1612
4.7317,6.0841
4.7136,5.9933
Z" /> 
</g>
<g >
</g>
<g style="fill:#000000; fill-opacity:1.0000; 
stroke:#000000; stroke-width:0.0000; stroke-opacity:1; 
stroke-linecap:round; stroke-linejoin:round;">
<circle cx="3.5261" cy="5.7558" r="0.4000" /> 
</g>
<g style="fill:#000000; fill-opacity:1.0000; 
stroke:#000000; stroke-width:0.0212; stroke-opacity:1; 
stroke-linecap:round; stroke-linejoin:round;">
</g>
<g style="fill:#000000; fill-opacity:1.0000; 
stroke:#000000; stroke-width:0.0000; stroke-opacity:1; 
stroke-linecap:round; stroke-linejoin:round;">
<circle cx="5.2511" cy="5.7558" r="0.4000" /> 
</g>
<g style="fill:#000000; fill-opacity:1.0000; 
stroke:#000000; stroke-width:0.0212; stroke-opacity:1; 
stroke-linecap:round; stroke-linejoin:round;">
</g>
<g style="fill:#000000; fill-opacity:1.0000; 
stroke:#000000; stroke-width:0.0000; stroke-opacity:1; 
stroke-linecap:round; stroke-linejoin:round;">
<circle cx="7.3623" cy="12.2334" r="0.4000" /> 
</g>
<g style="fill:#000000; fill-opacity:1.0000; 
stroke:#000000; stroke-width:0.0212; stroke-opacity:1; 
stroke-linecap:round; stroke-linejoin:round;">
</g>
<g style="fill:#000000; fill-opacity:1.0000; 
stroke:#000000; stroke-width:0.0000; stroke-opacity:1; 
stroke-linecap:round; stroke-linejoin:round;">
<circle cx="3.8805" cy="14.9742" r="0.4000" /> 
</g>
<g style="fill:#000000; fill-opacity:1.0000; 
stroke:#000000; stroke-width:0.0212; stroke-opacity:1; 
stroke-linecap:round; stroke-linejoin:round;">
</g>
<g style="fill:#000000; fill-opacity:1.0000; 
stroke:#000000; stroke-width:0.0000; stroke-opacity:1; 
stroke-linecap:round; stroke-linejoin:round;">
<circle cx="2.0593" cy="10.9634" r="0.4000" /> 
</g>
<g style="fill:#000000; fill-opacity:1.0000; 
stroke:#000000; stroke-width:0.0212; stroke-opacity:1; 
stroke-linecap:round; stroke-linejoin:round;">
</g>
<g style="fill:#000000; fill-opacity:1.0000; 
stroke:#000000; stroke-width:0.0000; stroke-opacity:1; 
stroke-linecap:round; stroke-linejoin:round;">
<circle cx="10.1174" cy="11.6327" r="0.4000" /> 
</g>
<g style="fill:#000000; fill-opacity:1.0000; 
stroke:#000000; stroke-width:0.0212; stroke-opacity:1; 
stroke-linecap:round; stroke-linejoin:round;">
</g>
<g style="fill:#000000; fill-opacity:1.0000; 
stroke:#000000; stroke-width:0.0000; stroke-opacity:1; 
stroke-linecap:round; stroke-linejoin:round;">
<circle cx="2.0593" cy="12.2334" r="0.4000" /> 
</g>
<g style="fill:#000000; fill-opacity:1.0000; 
stroke:#000000; stroke-width:0.0212; stroke-opacity:1; 
stroke-linecap:round; stroke-linejoin:round;">
</g>
<g >
</g>
<g style="fill:#000000; fill-opacity:1.0000; 
stroke:#000000; stroke-width:0.0212; stroke-opacity:1; 
stroke-linecap:round; stroke-linejoin:round;">
</g>
<g style="fill:#000000; fill-opacity:1.0000; 
stroke:#000000; stroke-width:0.2500; stroke-opacity:1; 
stroke-linecap:round; stroke-linejoin:round;">
</g>
<g style="fill:#000000; fill-opacity:0.0; 
stroke:#000000; stroke-width:0.2500; stroke-opacity:1; 
stroke-linecap:round; stroke-linejoin:round;">
<path d="M3.5261 6.6239
L4.5219 7.6197
" />
<path d="M2.5471 15.4347
L0.7119 13.5995
" />
<path d="M7.2597 5.0797
L11.3702 5.0797
" />
<path d="M3.5261 5.7558
L3.5261 6.6239
" />
<path d="M3.5261 6.9566
L2.0593 8.4234
" />
<path d="M0.7119 8.6791
L0.9713 8.4196
" />
<path d="M4.5219 7.6197
L4.7267 7.6197
" />
<path d="M6.1136 6.2259
L7.2597 5.0797
" />
<path d="M6.1136 6.2328
L6.1136 6.2259
" />
<path d="M3.5261 5.7558
L3.5261 6.9566
" />
<path d="M4.7267 7.6197
L6.1136 6.2328
" />
<path d="M0.7119 13.5995
L0.7119 8.6791
" />
<path d="M11.3702 5.0797
L13.1942 6.9037
" />
<path d="M0.9713 8.4196
L0.9750 8.4234
" />
<path d="M0.9750 8.4234
L2.0593 8.4234
" />
<path d="M10.1174 8.5327
L7.4716 8.5327
" />
<path d="M5.7919 9.5771
L5.7919 12.5544
" />
<path d="M5.7919 12.5544
L7.8805 14.6431
" />
<path d="M6.9456 8.4234
L5.7919 9.5771
" />
<path d="M10.0955 6.4567
L10.0955 8.5108
" />
<path d="M13.1942 9.4437
L10.2072 6.4567
" />
<path d="M10.0955 3.4817
L7.7340 3.4817
" />
<path d="M2.4140 10.9634
L5.2138 13.7631
" />
<path d="M5.2138 13.7631
L5.2138 15.4347
" />
<path d="M2.0593 9.6934
L4.4912 9.6934
" />
<path d="M4.4912 9.6934
L7.6684 6.5161
" />
<path d="M7.3623 9.6934
L10.9038 9.6934
" />
<path d="M10.9038 9.6934
L13.1942 11.9837
" />
<path d="M7.7790 10.9634
L8.5136 10.2288
" />
<path d="M10.5586 10.2288
L12.0192 11.6894
" />
<path d="M8.5136 10.2288
L10.5586 10.2288
" />
<path d="M12.0192 13.3487
L13.1942 14.5237
" />
<path d="M12.0192 11.6894
L12.0192 13.3487
" />
</g>
<g >
</g>
</g>
<g style="fill:#000000; fill-opacity:0.0; 
stroke:#000000; stroke-width:0.2500; stroke-opacity:1; 
stroke-linecap:round; stroke-linejoin:round;">
</g>
<g style="fill:#000000; fill-opacity:0.0; 
stroke:#000000; stroke-width:0.1000; stroke-opacity:1; 
stroke-linecap:round; stroke-linejoin:round;">
<path style="fill:#000000; fill-opacity:0.0; 
stroke:#000000; stroke-width:0.1000; stroke-opacity:1; 
stroke-linecap:round; stroke-linejoin:round;fill:none"
d="M 0.0500,1.6883
15.0500,1.6883
15.0500,16.6883
0.0500,16.6883
Z" /> 
<g >
</g>
<g >
</g>
<g >
</g>
<g >
</g>
<g >
</g>
<g >
</g>
<g >
</g>
<g >
</g>
<g >
</g>
<g >
</g>
<g >
</g>
<g >
</g>
</g> 
</svg>
